<svg t="1710861268391" class="icon" viewBox="0 0 1242 1024" version="1.1" xmlns="http://www.w3.org/2000/svg" p-id="1255" width="16" height="16"><path d="M398.669036 637.184582c-109.006325 0-197.685872-88.684439-197.685872-197.685872 0-108.996541 88.679547-197.68098 197.685872-197.68098 109.001433 0 197.685872 88.679547 197.685872 197.676088 0 109.001433-88.684439 197.690764-197.685872 197.690764z m0-273.068623c-41.568385 0-75.382751 33.809475-75.382751 75.372967 0 41.568385 33.819259 75.382751 75.382751 75.382751s75.382751-33.819259 75.382752-75.382751c0-41.553708-33.814367-75.372967-75.382752-75.372967z" p-id="1256"></path><path d="M938.515011 30.213763H304.074911c-146.969214 0-266.542529 119.568423-266.542529 266.542529v430.487416c0 146.974106 119.568423 266.547421 266.542529 266.547421h634.4401c146.974106 0 266.547421-119.573315 266.547421-266.547421V296.756292c0-146.974106-119.573315-266.542529-266.547421-266.542529zM381.057387 871.488009l8.556326-49.498519h467.917063l9.055323 49.498519H381.057387z m701.701924-144.244301c0 61.689694-38.946206 114.446368-93.532534 135.017753l-16.173365-88.425156c-7.719773-42.272851-45.956621-74.140152-88.929045-74.140152H362.496665c-43.246383 0-81.414741 32.126584-88.782281 74.751668l-15.473791 89.54056c-57.125342-19.206482-98.405091-73.225324-98.405091-136.734889V296.756292c0-79.536165 64.708135-144.239408 144.239409-144.239408h634.4401c79.536165 0 144.2443 64.713027 144.2443 144.239408v430.487416z" p-id="1257"></path><path d="M841.406333 637.17969c-109.001433 0-197.685872-88.684439-197.685872-197.685872 0-108.996541 88.684439-197.676088 197.685872-197.676088S1039.087313 330.487493 1039.087313 439.493818c0 109.006325-88.679547 197.685872-197.68098 197.685872z m0-273.073516c-41.568385 0-75.382751 33.814367-75.382751 75.37786 0 41.568385 33.814367 75.382751 75.382751 75.382751 41.563493 0 75.377859-33.819259 75.377859-75.382751 0-41.553708-33.814367-75.377859-75.377859-75.37786z" p-id="1258"></path></svg>